<svg width="700" height="665" viewBox="0 0 700 665" fill="none" xmlns="http://www.w3.org/2000/svg">
<path fill-rule="evenodd" clip-rule="evenodd" d="M340.801 8.57965C414.248 2.30356 493.514 -13.7011 555.859 25.631C619.562 65.82 645.525 143.426 668.331 215.212C690.997 286.558 715.316 364.969 685.474 433.624C656.446 500.407 577.616 523.826 516.788 563.858C459.486 601.57 408.884 652.07 340.801 660.462C267.474 669.5 181.049 665.103 130.192 611.511C80.1047 558.731 117.372 470.737 95.0395 401.485C72.7917 332.495 -10.5865 282.801 1.12058 211.264C12.858 139.541 88.4747 97.4759 150.885 60.2361C208.637 25.7764 273.794 14.3054 340.801 8.57965Z" fill="white"/>
</svg>
